<?xml version="1.0" encoding="utf-8"?>
<!-- Generator: Adobe Illustrator 21.0.2, SVG Export Plug-In . SVG Version: 6.00 Build 0)  -->
<svg version="1.1" id="Слой_1" xmlns="http://www.w3.org/2000/svg" xmlns:xlink="http://www.w3.org/1999/xlink" x="0px" y="0px"
	 viewBox="0 0 140 125" style="enable-background:new 0 0 140 125;" xml:space="preserve">
<style type="text/css">
	.st0{fill:url(#SVGID_1_);}
	.st1{fill:#2D4F9C;}
	.st2{fill:url(#SVGID_2_);}
	.st3{fill:url(#SVGID_3_);}
</style>
<g>
	<linearGradient id="SVGID_1_" gradientUnits="userSpaceOnUse" x1="38.9715" y1="39.9921" x2="59.2683" y2="7.0974">
		<stop  offset="0" style="stop-color:#B2BDC5"/>
		<stop  offset="1" style="stop-color:#757C81"/>
	</linearGradient>
	<path class="st0" d="M64.2,21.2c0,0-1.1-1-1.3-1.3c-2.5-2.1-5.8-3.4-9.3-3.4c-3.8,0-7.2,1.5-9.8,3.8l-0.8,0.8l-23.1,23L3.5,60.5
		l-0.1,0.1v0c-0.5,0.5-0.8,1.2-0.8,2c0,0.7,0.3,1.4,0.8,1.9c0,0,4.9,4.9,5.1,5.1c2.5,2.1,5.8,3.4,9.3,3.4c3.8,0,7.2-1.4,9.7-3.8
		c0,0,0,0,0,0h0l24-23.9L67.9,29l2.1-2.1L64.2,21.2z"/>
	<g>
		<path class="st1" d="M7.7,124.9V108h-7.8v-3h19.3v3h-7.8v16.9H7.7z"/>
		<path class="st1" d="M38.9,106.9c2,2,2.3,5.5,2.3,8.1c0,2.1-0.1,5.9-2.3,8.1c-2.1,2.1-5.7,2.1-7.9,2.1c-2.4,0-5.8,0-7.9-2.1
			c-2.3-2.2-2.3-5.8-2.3-8.1c0-2.7,0.1-6,2.3-8.1c2.2-2.1,5.5-2.1,7.9-2.1C33.3,104.8,36.7,104.8,38.9,106.9z M25.9,120.4
			c1.2,1.5,2.8,1.7,5.1,1.7c1.7,0,3.8-0.1,5.1-1.7c0.7-0.9,1.3-2.6,1.3-5.5c0-3-0.5-4.5-1.3-5.5c-1.3-1.6-3.4-1.7-5.1-1.7
			c-1.7,0-3.8,0.1-5.1,1.7c-0.8,1-1.3,2.5-1.3,5.5C24.6,117.8,25,119.4,25.9,120.4z"/>
		<path class="st1" d="M50.1,108c-0.3,0-0.7,0-0.9,0.3c-0.2,0.2-0.3,0.6-0.3,0.9v15.7h-3.8v-17.2c0-0.7,0.1-1.4,0.7-2
			c0.7-0.7,1.3-0.7,2.3-0.7h11.8c0.8,0,1.6,0,2.3,0.7c0.6,0.6,0.7,1.3,0.7,2v17.2h-3.8v-15.7c0-0.3,0-0.7-0.2-0.9
			c-0.3-0.3-0.7-0.3-0.9-0.3H50.1z"/>
		<path class="st1" d="M95.4,108H83.7c-0.4,0-0.8,0-1.1,0.2c-0.3,0.3-0.3,0.7-0.3,1v4.1h9.5c1,0,2.5,0.2,3.5,1.5c0.7,1,1,2.5,1,4.3
			c0,2.6-0.5,3.8-1.1,4.5c-0.4,0.5-1.5,1.3-3.4,1.3H81.2c-1,0-1.6-0.4-2-0.8c-0.5-0.6-0.5-1.3-0.5-1.8v-14.4c0-0.7,0.1-1.5,0.7-2.2
			c0.3-0.3,1-0.7,2-0.7h14.1V108z M82.4,120.4c0,0.9,0.1,1,0.1,1.1c0.3,0.4,1,0.4,1.4,0.4h6c0.7,0,1.4,0,2-0.6
			c0.6-0.6,0.6-1.7,0.6-2.3c0-0.7,0-1.6-0.6-2.2c-0.5-0.5-1.3-0.5-1.9-0.5h-7.6V120.4z"/>
		<path class="st1" d="M103.7,124.9l2.4-4.4L97.6,105h4.2l6.3,12.1l6.1-12.1h4.1l-10.5,19.9H103.7z"/>
		<path class="st1" d="M125.2,106.9c0.5-1.1,1.2-2.1,3.2-2.1c1.8,0,2.6,0.7,3.2,2.1l6.7,15h1.7v3h-23.2v-3h1.7L125.2,106.9z
			 M122.3,121.9h12.1l-5.6-12.9c-0.1-0.2-0.2-0.6-0.5-0.6s-0.4,0.5-0.5,0.6L122.3,121.9z"/>
	</g>
	<linearGradient id="SVGID_2_" gradientUnits="userSpaceOnUse" x1="61.5389" y1="71.7566" x2="78.9725" y2="53.5233">
		<stop  offset="0" style="stop-color:#B2BDC5"/>
		<stop  offset="1" style="stop-color:#757C81"/>
	</linearGradient>
	<path class="st2" d="M74.4,53h-8.8c-3.1,0-5.6,2.5-5.6,5.6v8.8c0,3.1,2.5,5.6,5.6,5.6h8.8c3.1,0,5.6-2.5,5.6-5.6v-8.8
		C79.9,55.5,77.4,53,74.4,53z"/>
	<linearGradient id="SVGID_3_" gradientUnits="userSpaceOnUse" x1="43.7443" y1="36.5434" x2="137.2735" y2="36.5434">
		<stop  offset="0" style="stop-color:#467CBF"/>
		<stop  offset="0.7538" style="stop-color:#2D4F9C"/>
	</linearGradient>
	<path class="st3" d="M136.5,60.7c0,0-0.6-0.6-0.6-0.6l-15.8-15.8L86.3,10.6l-5.4-5.4l-1.5-1.5c-2.5-2.2-5.8-3.5-9.4-3.5
		c-3.7,0-7.2,1.4-9.7,3.8c-0.3,0.3-0.6,0.6-0.9,0.9l-3.8,3.8l-3.1,3.1l-8.6,8.6c2.6-2.4,6-3.8,9.8-3.8c3.6,0,6.8,1.3,9.3,3.4
		c0.3,0.2,1.3,1.3,1.3,1.3l5.7,5.7l41.8,41.7h0.1c2.6,2.7,6.3,4.3,10.3,4.3c3.3,0,6.3-1.1,8.8-3c0.1-0.1,0.6-0.6,0.6-0.6l4.9-4.9v0
		c0.5-0.5,0.8-1.2,0.8-2C137.3,61.8,137,61.2,136.5,60.7z"/>
</g>
</svg>
